<svg width="25" height="24" viewBox="0 0 25 24" fill="none" xmlns="http://www.w3.org/2000/svg">
<g clip-path="url(#clip0_2_13100)">
<path d="M18.3778 -0.497624C18.438 -0.498408 18.4982 -0.499192 18.5603 -0.5C18.8507 -0.471683 19.0288 -0.345138 19.2376 -0.149613C19.2979 -0.0938799 19.2979 -0.0938799 19.3594 -0.0370211C19.4003 0.00109929 19.4412 0.0392196 19.4833 0.0784951C19.5631 0.150803 19.643 0.222944 19.7231 0.294905C19.7616 0.329708 19.8002 0.364511 19.8399 0.400369C19.9411 0.490591 20.0438 0.578534 20.1471 0.666312C20.5679 1.03791 20.8802 1.45032 20.9176 2.03246C20.9195 2.1275 20.92 2.22258 20.9196 2.31764C20.9206 2.39697 20.9206 2.39697 20.9216 2.4779C20.9235 2.65355 20.9237 2.82915 20.924 3.00481C20.9249 3.13137 20.9261 3.25792 20.9273 3.38448C20.9302 3.72709 20.9315 4.06969 20.9323 4.41231C20.9329 4.62648 20.9338 4.84065 20.9347 5.05482C20.9374 5.64867 20.9396 6.24251 20.9402 6.83635C20.9402 6.87426 20.9403 6.91217 20.9403 6.95122C20.9404 7.02805 20.9405 7.10489 20.9405 7.18172C20.9406 7.21985 20.9406 7.25799 20.9407 7.29728C20.9407 7.33546 20.9407 7.37364 20.9408 7.41298C20.9415 8.03233 20.9452 8.65163 20.9502 9.27096C20.9553 9.90792 20.958 10.5448 20.9582 11.1818C20.9583 11.539 20.9595 11.8962 20.9634 12.2534C20.9668 12.5574 20.9678 12.8612 20.9659 13.1652C20.9651 13.3202 20.9656 13.475 20.9683 13.6299C20.9831 14.5384 21.0496 21.9287 20.887 22.164C20.7146 22.3372 20.2319 22.164 20.2319 22.164C20.2319 22.164 20.1702 21.6334 20.1384 21.6493C20.1383 21.6219 20.1383 15.1372 20.1382 15.1089C20.1355 13.4815 20.132 11.8541 20.1277 10.2267C20.1271 10.0312 20.1266 9.8357 20.1261 9.64021C20.1259 9.58183 20.1259 9.58183 20.1258 9.52227C20.1241 8.89247 20.123 8.26267 20.122 7.63286C20.121 6.98641 20.1194 6.33996 20.1174 5.69351C20.1161 5.29476 20.1153 4.89602 20.115 4.49727C20.1148 4.22366 20.114 3.95006 20.1128 3.67646C20.1122 3.5187 20.1118 3.36097 20.1119 3.20321C20.112 3.03187 20.1112 2.86054 20.1102 2.6892C20.1105 2.63976 20.1107 2.59033 20.1109 2.5394C20.1069 2.11737 20.05 1.73356 19.7511 1.41845C19.6369 1.30995 19.5202 1.20533 19.4001 1.10334C19.2406 0.966775 19.0863 0.824461 18.9311 0.682945C18.8259 0.587342 18.8259 0.587342 18.6878 0.499618C18.6724 7.83417 18.6569 15.1687 18.641 22.7255C19.1352 22.7255 19.6293 22.7255 20.1384 22.7255C20.1384 22.3704 20.1384 22.0152 20.1384 21.6493C20.3468 21.7883 20.3468 21.7883 20.5595 21.9301C20.6222 21.9629 20.6849 21.9957 20.7496 22.0295C20.8296 22.0849 20.8296 22.0849 20.887 22.164C20.9004 22.3 20.9004 22.3 20.8956 22.4532C20.8944 22.5041 20.8931 22.555 20.8919 22.6074C20.8903 22.6464 20.8887 22.6854 20.887 22.7255C20.9257 22.7246 20.9644 22.7236 21.0043 22.7226C21.1797 22.7187 21.355 22.7162 21.5304 22.7138C21.5913 22.7123 21.6522 22.7107 21.715 22.7091C21.7735 22.7085 21.832 22.7079 21.8923 22.7073C21.9462 22.7063 22.0001 22.7053 22.0557 22.7043C22.2267 22.73 22.2799 22.7778 22.3844 22.9127C22.4092 23.0063 22.4092 23.0063 22.4077 23.0999C22.4082 23.1307 22.4087 23.1616 22.4092 23.1934C22.3726 23.3314 22.3076 23.3851 22.1972 23.4742C22.0613 23.4977 22.0613 23.4977 21.8999 23.4977C21.8384 23.4982 21.7768 23.4987 21.7134 23.4992C21.645 23.4988 21.5765 23.4984 21.508 23.498C21.4354 23.4982 21.3628 23.4985 21.2902 23.4988C21.0904 23.4996 20.8906 23.4992 20.6908 23.4987C20.4754 23.4982 20.2601 23.4989 20.0447 23.4994C19.6227 23.5002 19.2007 23.5001 18.7786 23.4995C18.4357 23.4991 18.0928 23.499 17.7499 23.4992C17.7012 23.4993 17.6524 23.4993 17.6022 23.4993C17.5032 23.4994 17.4042 23.4994 17.3051 23.4995C16.376 23.5 15.4468 23.4994 14.5176 23.4984C13.7198 23.4976 12.922 23.4977 12.1242 23.4986C11.1985 23.4996 10.2727 23.5 9.34687 23.4994C9.24821 23.4994 9.14954 23.4993 9.05087 23.4992C8.97805 23.4992 8.97805 23.4992 8.90376 23.4991C8.56115 23.499 8.21855 23.4993 7.87595 23.4997C7.4586 23.5002 7.04125 23.5001 6.6239 23.4991C6.41084 23.4986 6.19779 23.4984 5.98473 23.499C5.78984 23.4996 5.59498 23.4993 5.40011 23.4983C5.32945 23.4981 5.25879 23.4982 5.18813 23.4986C5.09239 23.4992 4.99664 23.4985 4.9009 23.4977C4.82099 23.4977 4.82099 23.4977 4.73947 23.4977C4.57369 23.469 4.51874 23.4179 4.41646 23.287C4.3916 23.1934 4.3916 23.1934 4.39306 23.0999C4.39258 23.069 4.3921 23.0381 4.3916 23.0063C4.42834 22.868 4.4925 22.8144 4.60363 22.7255C4.74514 22.7043 4.74514 22.7043 4.9085 22.7073C4.96701 22.7079 5.02552 22.7085 5.0858 22.7091C5.17718 22.7114 5.17718 22.7114 5.2704 22.7138C5.33205 22.7147 5.39369 22.7155 5.4572 22.7164C5.60943 22.7186 5.76159 22.7217 5.91378 22.7255C5.91369 22.6846 5.91361 22.6437 5.91351 22.6016C5.90828 20.1771 5.90426 17.7526 5.90184 15.328C5.90154 15.037 5.90124 14.7459 5.90093 14.4548C5.90087 14.3968 5.90081 14.3389 5.90075 14.2792C5.89973 13.3407 5.89788 12.4023 5.89573 11.4639C5.89355 10.501 5.89225 9.53818 5.89177 8.57532C5.89145 7.98115 5.89044 7.38698 5.88854 6.79281C5.8873 6.38541 5.88693 5.97801 5.88723 5.57061C5.88738 5.33553 5.88715 5.10047 5.88589 4.86539C5.88475 4.65005 5.8847 4.43474 5.8855 4.2194C5.8856 4.14161 5.8853 4.06383 5.88457 3.98605C5.87993 3.46544 5.93863 3.07659 6.28626 2.66716C6.52534 2.44706 6.82373 2.31672 7.11318 2.17588C7.17512 2.14516 7.23704 2.11438 7.29893 2.08354C7.46086 2.00307 7.62317 1.9234 7.78558 1.84389C7.91803 1.77888 8.05021 1.7133 8.18237 1.6477C8.45585 1.51194 8.72955 1.37664 9.00368 1.24219C9.05205 1.21845 9.10042 1.19471 9.15025 1.17025C9.36234 1.07047 9.52908 1.00073 9.7653 0.999701C9.80662 0.998917 9.84793 0.998132 9.8905 0.997325C10.2345 1.03882 10.4603 1.17613 10.7011 1.4179C10.7538 1.46871 10.8065 1.5194 10.8594 1.56997C10.8854 1.59488 10.9113 1.61979 10.9381 1.64546C11.0474 1.74723 11.1632 1.83982 11.2802 1.9326C11.7627 2.32428 12.0792 2.66554 12.2774 3.26031C12.2818 3.37357 12.2835 3.48546 12.283 3.59872C12.2831 3.65077 12.2831 3.65077 12.2832 3.70388C12.2832 3.82049 12.283 3.93709 12.2827 4.0537C12.2827 4.13716 12.2827 4.22062 12.2827 4.30408C12.2828 4.53096 12.2825 4.75784 12.2822 4.98473C12.2819 5.22172 12.2818 5.45872 12.2818 5.69571C12.2816 6.14463 12.2813 6.59355 12.2808 7.04247C12.2803 7.55349 12.28 8.06452 12.2798 8.57554C12.2793 9.62687 12.2785 10.6782 12.2774 11.7296C12.0973 11.6709 11.9207 11.6077 11.7452 11.5365C11.6838 11.5117 11.6838 11.5117 11.6212 11.4865C11.5907 11.474 11.5602 11.4616 11.5287 11.4488C11.5286 11.409 11.5285 11.3691 11.5284 11.3281C11.5256 10.3576 11.5221 9.38704 11.5177 8.41653C11.5156 7.94719 11.5138 7.47785 11.5125 7.00851C11.5115 6.59932 11.5099 6.19012 11.5078 5.78093C11.5066 5.56438 11.5058 5.34782 11.5055 5.13126C11.5052 4.92717 11.5042 4.72309 11.5028 4.519C11.5024 4.44435 11.5022 4.3697 11.5023 4.29504C11.5053 3.54578 11.5053 3.54578 11.1416 2.91595C10.9941 2.77574 10.8416 2.64362 10.6865 2.51165C10.5475 2.38812 10.4086 2.26459 10.2654 2.13732C10.2499 5.33364 10.2345 8.52996 10.2186 11.8231C9.97153 11.9312 9.72447 12.0393 9.46993 12.1507C9.45449 11.6874 9.43905 11.2242 9.42314 10.7469C9.154 10.8842 8.88493 11.0216 8.61599 11.1593C8.57647 11.1795 8.53696 11.1997 8.49625 11.2206C7.99605 11.4768 7.49793 11.735 7.00922 12.0127C6.76502 12.1507 6.76502 12.1507 6.66245 12.1507C6.66245 12.722 6.66245 13.2933 6.66245 13.882C7.07936 13.6967 7.07936 13.6967 7.50469 13.5076C7.52516 13.7416 7.52516 13.7416 7.4579 14.0223C7.22628 14.1459 6.99466 14.2694 6.75603 14.3967C6.74059 14.968 6.72515 15.5393 6.70924 16.1279C6.92541 16.0199 7.14159 15.9118 7.36432 15.8004C7.3952 15.8004 7.42608 15.8004 7.4579 15.8004C7.4579 15.9548 7.4579 16.1092 7.4579 16.2683C7.22628 16.3918 6.99466 16.5154 6.75603 16.6426C6.74059 17.214 6.72515 17.7853 6.70924 18.3739C6.92541 18.2658 7.14159 18.1578 7.36432 18.0464C7.3952 18.0464 7.42608 18.0464 7.4579 18.0464C7.4579 18.2008 7.4579 18.3552 7.4579 18.5143C7.22628 18.6378 6.99466 18.7614 6.75603 18.8886C6.74059 19.46 6.72515 20.0313 6.70924 20.6199C6.92541 20.5118 7.14159 20.4037 7.36432 20.2924C7.3952 20.2924 7.42608 20.2924 7.4579 20.2924C7.4579 20.4468 7.4579 20.6012 7.4579 20.7603C7.22628 20.8838 6.99466 21.0073 6.75603 21.1346C6.74059 21.6596 6.72515 22.1846 6.70924 22.7255C7.18791 22.7255 7.66659 22.7255 8.15977 22.7255C8.1593 22.5671 8.1593 22.5671 8.15883 22.4054C8.15596 21.4098 8.15387 20.4143 8.1525 19.4187C8.15177 18.9069 8.15079 18.3951 8.14918 17.8832C8.14778 17.437 8.14688 16.9908 8.14656 16.5446C8.14638 16.3084 8.14595 16.0723 8.14493 15.8361C8.14397 15.6136 8.14368 15.3911 8.14389 15.1685C8.14385 15.0871 8.14358 15.0056 8.14304 14.9242C8.13966 14.3891 8.14008 13.8848 8.49526 13.4508C8.82018 13.1337 9.29399 12.9647 9.70096 12.7794C9.78506 12.7408 9.78506 12.7408 9.87085 12.7013C9.98138 12.6505 10.092 12.6 10.2028 12.5499C10.3025 12.5041 10.4017 12.4572 10.5001 12.4089C10.7665 12.2797 10.9913 12.1988 11.2889 12.2004C11.3265 12.2006 11.364 12.2008 11.4026 12.201C11.8574 12.2234 12.2332 12.4288 12.6248 12.6455C12.7432 12.711 12.8629 12.7737 12.9831 12.8359C13.058 12.8754 13.1327 12.9151 13.2074 12.9549C13.241 12.9726 13.2747 12.9904 13.3093 13.0086C13.7107 13.2313 14.0061 13.5323 14.1491 13.9755C14.1819 14.2598 14.1787 14.5418 14.1756 14.8276C14.1756 14.9134 14.1756 14.9992 14.1757 15.085C14.1758 15.3168 14.1744 15.5486 14.1728 15.7804C14.1713 16.0231 14.1712 16.2658 14.1709 16.5084C14.1702 16.9675 14.1683 17.4265 14.1659 17.8855C14.1633 18.4083 14.162 18.9311 14.1608 19.4539C14.1584 20.5288 14.1542 21.6038 14.1491 22.6787C14.3961 22.6787 14.6432 22.6787 14.8977 22.6787C14.8975 22.5717 14.8972 22.4647 14.8969 22.3544C14.8908 19.8135 14.8862 17.2726 14.8834 14.7317C14.883 14.4189 14.8827 14.1062 14.8823 13.7934C14.8823 13.7623 14.8822 13.7312 14.8822 13.6991C14.881 12.6908 14.8789 11.6826 14.8763 10.6743C14.8736 9.60856 14.8719 8.54281 14.8713 7.47705C14.8709 6.83875 14.8697 6.20047 14.8674 5.56219C14.8659 5.12446 14.8655 4.68675 14.8659 4.24903C14.866 3.99649 14.8658 3.74398 14.8643 3.49145C14.8629 3.26006 14.8628 3.02871 14.8638 2.79731C14.8639 2.71379 14.8636 2.63027 14.8627 2.54676C14.8574 2.02138 14.8913 1.57704 15.2557 1.15991C15.485 0.939204 15.7894 0.794447 16.0646 0.639992C16.1453 0.594093 16.2261 0.548193 16.3067 0.502236C16.362 0.470782 16.4173 0.439371 16.4726 0.408003C16.8143 0.214162 17.1528 0.0149384 17.4915 -0.183884C17.5354 -0.209549 17.5792 -0.235214 17.6244 -0.261656C17.6819 -0.295387 17.6819 -0.295387 17.7406 -0.329799C17.9685 -0.459218 18.1095 -0.49682 18.3778 -0.497624ZM17.5063 0.718952C17.4433 0.757449 17.3803 0.79589 17.3172 0.834286C17.2824 0.85545 17.2476 0.876613 17.2118 0.898418C17.0856 0.974319 16.9586 1.04863 16.8313 1.12271C16.7858 1.1493 16.7402 1.17589 16.6933 1.20328C16.6032 1.2558 16.513 1.30813 16.4227 1.36027C15.9614 1.61183 15.9614 1.61183 15.6684 2.03023C15.6157 2.28694 15.6325 2.5522 15.6376 2.81287C15.6383 2.87388 15.6389 2.93489 15.6395 2.99775C15.6412 3.14768 15.6435 3.29757 15.6464 3.44748C16.001 3.27379 16.3486 3.09226 16.6904 2.89475C16.7481 2.86177 16.7481 2.86177 16.8069 2.82813C16.8884 2.78133 16.9693 2.73351 17.0497 2.6848C17.1585 2.62333 17.2626 2.5727 17.3766 2.52301C17.7125 2.37495 17.7125 2.37495 17.9284 2.09526C17.9794 1.84369 17.9565 1.59284 17.9362 1.33894C17.9327 1.26197 17.9295 1.18499 17.9267 1.108C17.919 0.920413 17.9069 0.733584 17.8924 0.546409C17.7422 0.546409 17.631 0.641927 17.5063 0.718952ZM9.19893 2.00984C9.15112 2.03314 9.10332 2.05644 9.05407 2.08044C8.83436 2.18833 8.61483 2.29655 8.39547 2.40514C8.27989 2.46231 8.16412 2.51906 8.04815 2.57545C7.88101 2.65672 7.7145 2.73923 7.54801 2.82182C7.49638 2.84674 7.44476 2.87166 7.39157 2.89734C7.11321 3.03687 6.87016 3.17173 6.70924 3.44748C6.65807 3.61004 6.65707 3.75903 6.65788 3.92928C6.65803 3.98568 6.65818 4.04207 6.65833 4.10018C6.65873 4.15887 6.65912 4.21756 6.65952 4.27802C6.65973 4.33743 6.65994 4.39685 6.66016 4.45806C6.66071 4.60471 6.66148 4.75136 6.66245 4.89801C6.86344 4.83583 7.04461 4.75836 7.23125 4.66149C7.25822 4.64755 7.28518 4.63362 7.31296 4.61925C7.40038 4.57397 7.48763 4.52837 7.57488 4.48274C7.6354 4.45125 7.69592 4.41977 7.75645 4.3883C8.63081 3.94793 8.63081 3.94793 9.46993 3.44748C9.48243 3.32797 9.48624 3.21994 9.48364 3.10056C9.48334 3.04935 9.48334 3.04935 9.48304 2.9971C9.48225 2.88791 9.48049 2.77875 9.4787 2.66957C9.478 2.5956 9.47736 2.52164 9.47678 2.44767C9.47523 2.26622 9.47281 2.0848 9.46993 1.90336C9.37522 1.90336 9.28159 1.96951 9.19893 2.00984ZM17.5802 2.82237C17.535 2.84908 17.4899 2.8758 17.4434 2.90332C17.3703 2.94685 17.3703 2.94685 17.2958 2.99126C16.7524 3.31204 16.2017 3.61579 15.6464 3.91539C15.6464 4.50215 15.6464 5.08892 15.6464 5.69346C16.0012 5.51608 16.3479 5.33863 16.6904 5.14074C16.7481 5.10776 16.7481 5.10776 16.8069 5.07412C16.8885 5.0273 16.9694 4.97941 17.0497 4.9306C17.1587 4.86916 17.2621 4.81948 17.3766 4.77065C17.7154 4.62241 17.7154 4.62241 17.9284 4.3374C17.9797 4.07162 17.9564 3.80617 17.9362 3.53813C17.9327 3.45666 17.9295 3.37517 17.9267 3.29367C17.919 3.09502 17.9069 2.89708 17.8924 2.69881C17.7612 2.69881 17.6928 2.7552 17.5802 2.82237ZM9.08609 4.10621C9.05679 4.12132 9.02749 4.13643 8.99729 4.152C8.90128 4.2016 8.80542 4.25149 8.70957 4.30142C8.64369 4.33558 8.5778 4.36974 8.51192 4.4039C7.96947 4.68573 7.42818 4.97076 6.8964 5.27234C6.85421 5.28968 6.81201 5.30702 6.76854 5.32489C6.64319 5.40882 6.64319 5.40882 6.63589 5.58758C6.63592 5.66011 6.63724 5.73265 6.6396 5.80514C6.63993 5.84337 6.64026 5.8816 6.6406 5.92099C6.64191 6.04308 6.64485 6.16507 6.64782 6.28713C6.649 6.36989 6.65006 6.45266 6.65102 6.53543C6.6536 6.73833 6.65764 6.94114 6.66245 7.144C7.35211 6.82781 8.01996 6.47792 8.68642 6.11593C8.94731 5.97459 9.20868 5.83414 9.46993 5.69346C9.46993 5.12214 9.46993 4.55082 9.46993 3.96218C9.32207 3.96218 9.21655 4.03873 9.08609 4.10621ZM17.5802 5.06836C17.535 5.09507 17.4899 5.12178 17.4434 5.14931C17.3703 5.19284 17.3703 5.19284 17.2958 5.23725C16.7524 5.55802 16.2017 5.86178 15.6464 6.16138C15.6464 6.74814 15.6464 7.3349 15.6464 7.93945C16.0012 7.76206 16.3479 7.58462 16.6904 7.38673C16.7481 7.35375 16.7481 7.35375 16.8069 7.3201C16.8885 7.27329 16.9694 7.2254 17.0497 7.17659C17.1587 7.11514 17.2621 7.06547 17.3766 7.01663C17.7154 6.8684 17.7154 6.8684 17.9284 6.58339C17.9797 6.3176 17.9564 6.05216 17.9362 5.78412C17.9327 5.70265 17.9295 5.62116 17.9267 5.53965C17.919 5.341 17.9069 5.14306 17.8924 4.9448C17.7612 4.9448 17.6928 5.00119 17.5802 5.06836ZM9.08609 6.3522C9.05679 6.36731 9.02749 6.38242 8.99729 6.39798C8.90128 6.44758 8.80542 6.49748 8.70957 6.54741C8.64369 6.58157 8.5778 6.61573 8.51192 6.64989C7.96947 6.93172 7.42818 7.21675 6.8964 7.51833C6.85421 7.53567 6.81201 7.55301 6.76854 7.57088C6.64319 7.6548 6.64319 7.6548 6.63589 7.83356C6.63592 7.90609 6.63724 7.97863 6.6396 8.05113C6.63993 8.08936 6.64026 8.12759 6.6406 8.16697C6.64191 8.28906 6.64485 8.41105 6.64782 8.53312C6.649 8.61588 6.65006 8.69865 6.65102 8.78142C6.6536 8.98431 6.65764 9.18713 6.66245 9.38998C7.35211 9.0738 8.01996 8.72391 8.68642 8.36192C8.94731 8.22057 9.20868 8.08012 9.46993 7.93945C9.46993 7.36813 9.46993 6.7968 9.46993 6.20817C9.32207 6.20817 9.21655 6.28472 9.08609 6.3522ZM17.5802 7.31435C17.535 7.34106 17.4899 7.36777 17.4434 7.39529C17.3703 7.43882 17.3703 7.43882 17.2958 7.48323C16.7524 7.80401 16.2017 8.10776 15.6464 8.40736C15.6464 8.99413 15.6464 9.58089 15.6464 10.1854C16.0012 10.0081 16.3479 9.8306 16.6904 9.63271C16.7481 9.59973 16.7481 9.59973 16.8069 9.56609C16.8885 9.51927 16.9694 9.47139 17.0497 9.42257C17.1587 9.36113 17.2621 9.31145 17.3766 9.26262C17.7154 9.11439 17.7154 9.11439 17.9284 8.82938C17.9797 8.56359 17.9564 8.29814 17.9362 8.03011C17.9327 7.94863 17.9295 7.86714 17.9267 7.78564C17.919 7.58699 17.9069 7.38905 17.8924 7.19079C17.7612 7.19079 17.6928 7.24717 17.5802 7.31435ZM9.08609 8.59818C9.05679 8.61329 9.02749 8.6284 8.99729 8.64397C8.90128 8.69357 8.80542 8.74347 8.70957 8.79339C8.64369 8.82756 8.5778 8.86172 8.51192 8.89587C7.96947 9.17771 7.42818 9.46273 6.8964 9.76431C6.85421 9.78165 6.81201 9.799 6.76854 9.81686C6.64319 9.90079 6.64319 9.90079 6.63589 10.0795C6.63592 10.1521 6.63724 10.2246 6.6396 10.2971C6.63993 10.3353 6.64026 10.3736 6.6406 10.413C6.64191 10.5351 6.64485 10.657 6.64782 10.7791C6.649 10.8619 6.65006 10.9446 6.65102 11.0274C6.6536 11.2303 6.65764 11.4331 6.66245 11.636C7.35211 11.3198 8.01996 10.9699 8.68642 10.6079C8.94731 10.4666 9.20868 10.3261 9.46993 10.1854C9.46993 9.61411 9.46993 9.04279 9.46993 8.45415C9.32207 8.45415 9.21655 8.5307 9.08609 8.59818ZM17.5802 9.56033C17.535 9.58705 17.4899 9.61376 17.4434 9.64128C17.3703 9.68481 17.3703 9.68481 17.2958 9.72922C16.7524 10.05 16.2017 10.3538 15.6464 10.6533C15.6464 11.2401 15.6464 11.8269 15.6464 12.4314C16.0012 12.254 16.3479 12.0766 16.6904 11.8787C16.7481 11.8457 16.7481 11.8457 16.8069 11.8121C16.8885 11.7653 16.9694 11.7174 17.0497 11.6686C17.1587 11.6071 17.2621 11.5574 17.3766 11.5086C17.7154 11.3604 17.7154 11.3604 17.9284 11.0754C17.9797 10.8096 17.9564 10.5441 17.9362 10.2761C17.9327 10.1946 17.9295 10.1131 17.9267 10.0316C17.919 9.83298 17.9069 9.63504 17.8924 9.43677C17.7612 9.43677 17.6928 9.49316 17.5802 9.56033ZM17.5802 11.8063C17.535 11.833 17.4899 11.8597 17.4434 11.8873C17.3703 11.9308 17.3703 11.9308 17.2958 11.9752C16.7524 12.296 16.2017 12.5997 15.6464 12.8993C15.6464 13.4861 15.6464 14.0729 15.6464 14.6774C16.0012 14.5 16.3479 14.3226 16.6904 14.1247C16.7481 14.0917 16.7481 14.0917 16.8069 14.0581C16.8885 14.0112 16.9694 13.9634 17.0497 13.9145C17.1587 13.8531 17.2621 13.8034 17.3766 13.7546C17.7154 13.6064 17.7154 13.6064 17.9284 13.3214C17.9797 13.0556 17.9564 12.7901 17.9362 12.5221C17.9327 12.4406 17.9295 12.3591 17.9267 12.2776C17.919 12.079 17.9069 11.881 17.8924 11.6828C17.7612 11.6828 17.6928 11.7391 17.5802 11.8063ZM10.5043 13.2506C10.4676 13.2676 10.4309 13.2846 10.3931 13.3021C10.3152 13.3383 10.2375 13.3746 10.1598 13.4109C10.0414 13.4661 9.92272 13.5203 9.80396 13.5745C9.72835 13.6098 9.65277 13.6451 9.57722 13.6805C9.54188 13.6965 9.50653 13.7124 9.47011 13.7289C9.23781 13.8395 9.10342 13.9511 8.95522 14.1627C8.90098 14.3254 8.90209 14.4705 8.90281 14.6397C8.90277 14.6742 8.90273 14.7087 8.90268 14.7443C8.90261 14.8603 8.90286 14.9762 8.90312 15.0922C8.90313 15.1752 8.90313 15.2582 8.9031 15.3412C8.90309 15.5668 8.90336 15.7924 8.90369 16.018C8.90398 16.2537 8.90401 16.4894 8.90406 16.7251C8.90421 17.1715 8.90459 17.618 8.90506 18.0644C8.90559 18.5726 8.90584 19.0808 8.90608 19.589C8.90657 20.6345 8.90743 21.68 8.90843 22.7255C9.58784 22.7255 10.2673 22.7255 10.9673 22.7255C10.9673 19.5447 10.9673 16.3638 10.9673 13.0865C10.801 13.0865 10.6531 13.1816 10.5043 13.2506ZM11.7159 13.1333C11.7159 16.2987 11.7159 19.4642 11.7159 22.7255C12.2718 22.7255 12.8277 22.7255 13.4004 22.7255C13.4046 21.6338 13.4081 20.5422 13.4101 19.4505C13.4111 18.9436 13.4124 18.4367 13.4145 17.9298C13.4164 17.4879 13.4176 17.0461 13.418 16.6042C13.4183 16.3703 13.4188 16.1364 13.4202 15.9025C13.4215 15.6822 13.4219 15.4619 13.4216 15.2416C13.4216 15.1608 13.422 15.0801 13.4227 14.9994C13.4372 14.4346 13.4372 14.4346 13.2132 13.9287C13.1062 13.842 12.9973 13.7793 12.874 13.7182C12.8454 13.7029 12.8168 13.6877 12.7874 13.6719C12.4343 13.4857 12.0721 13.3114 11.7159 13.1333ZM17.5802 14.0523C17.535 14.079 17.4899 14.1057 17.4434 14.1333C17.3703 14.1768 17.3703 14.1768 17.2958 14.2212C16.7524 14.542 16.2017 14.8457 15.6464 15.1453C15.6464 15.7321 15.6464 16.3189 15.6464 16.9234C16.0012 16.746 16.3479 16.5686 16.6904 16.3707C16.7481 16.3377 16.7481 16.3377 16.8069 16.3041C16.8885 16.2572 16.9694 16.2093 17.0497 16.1605C17.1587 16.0991 17.2621 16.0494 17.3766 16.0006C17.7154 15.8523 17.7154 15.8523 17.9284 15.5673C17.9797 15.3016 17.9564 15.0361 17.9362 14.7681C17.9327 14.6866 17.9295 14.6051 17.9267 14.5236C17.919 14.325 17.9069 14.127 17.8924 13.9287C17.7612 13.9287 17.6928 13.9851 17.5802 14.0523ZM17.5802 16.2983C17.535 16.325 17.4899 16.3517 17.4434 16.3792C17.3703 16.4228 17.3703 16.4228 17.2958 16.4672C16.7524 16.788 16.2017 17.0917 15.6464 17.3913C15.6464 17.9781 15.6464 18.5648 15.6464 19.1694C16.0012 18.992 16.3479 18.8146 16.6904 18.6167C16.7481 18.5837 16.7481 18.5837 16.8069 18.55C16.8885 18.5032 16.9694 18.4553 17.0497 18.4065C17.1587 18.3451 17.2621 18.2954 17.3766 18.2466C17.7154 18.0983 17.7154 18.0983 17.9284 17.8133C17.9797 17.5475 17.9564 17.2821 17.9362 17.0141C17.9327 16.9326 17.9295 16.8511 17.9267 16.7696C17.919 16.5709 17.9069 16.373 17.8924 16.1747C17.7612 16.1747 17.6928 16.2311 17.5802 16.2983ZM17.5802 18.5443C17.535 18.571 17.4899 18.5977 17.4434 18.6252C17.3703 18.6688 17.3703 18.6688 17.2958 18.7132C16.7524 19.0339 16.2017 19.3377 15.6464 19.6373C15.6464 20.2241 15.6464 20.8108 15.6464 21.4154C16.0012 21.238 16.3479 21.0605 16.6904 20.8626C16.7481 20.8297 16.7481 20.8297 16.8069 20.796C16.8885 20.7492 16.9694 20.7013 17.0497 20.6525C17.1587 20.5911 17.2621 20.5414 17.3766 20.4926C17.7154 20.3443 17.7154 20.3443 17.9284 20.0593C17.9797 19.7935 17.9564 19.5281 17.9362 19.26C17.9327 19.1786 17.9295 19.0971 17.9267 19.0156C17.919 18.8169 17.9069 18.619 17.8924 18.4207C17.7612 18.4207 17.6928 18.4771 17.5802 18.5443ZM17.5802 20.7903C17.535 20.817 17.4899 20.8437 17.4434 20.8712C17.3703 20.9147 17.3703 20.9147 17.2958 20.9592C16.7526 21.2798 16.202 21.5847 15.6464 21.8833C15.6464 22.1612 15.6464 22.4392 15.6464 22.7255C16.3876 22.7255 17.1287 22.7255 17.8924 22.7255C17.8924 22.0461 17.8924 21.3667 17.8924 20.6667C17.7612 20.6667 17.6928 20.7231 17.5802 20.7903Z" fill="#F4F0ED"/>
</g>
<defs>
<clipPath id="clip0_2_13100">
<rect width="24" height="24" fill="white" transform="translate(0.900391)"/>
</clipPath>
</defs>
</svg>
